<svg width="144" height="144" viewBox="0 0 144 144" fill="none" xmlns="http://www.w3.org/2000/svg">
<g filter="url(#filter0_di_3397_3)">
<rect x="19" y="68.033" width="75" height="75" rx="15" transform="rotate(-45 19 68.033)" fill="url(#paint0_linear_3397_3)"/>
</g>
<path d="M88 85.032L84.1924 81.7162L82.0461 79.7451L79.7768 77.6636L80.7092 80.9038H60.6305C58.6197 80.8967 56.9949 79.2816 57 77.2951V53.637C56.9969 51.6519 58.6212 50.0391 60.6305 50.032H84.3695C86.3789 50.0391 88.0031 51.6519 88 53.637V85.032ZM79.5624 69.3888C78.7762 70.4306 77.6442 71.1661 76.3645 71.4667C76.8904 72.1299 77.5243 72.8796 77.5299 72.887C79.6689 72.9317 81.6942 71.9378 82.9505 70.227C82.8862 66.6804 82.0143 63.1937 80.3996 60.0254C78.9781 58.9234 77.2477 58.2803 75.4434 58.1833H75.4229L75.1749 58.4633C76.7865 58.8909 78.2895 59.6478 79.5866 60.6849C77.9361 59.7885 76.1248 59.2179 74.2537 59.0049C73.0645 58.8744 71.8637 58.8861 70.6773 59.0399C70.5934 59.0415 70.5098 59.0501 70.4274 59.0657H70.3752C68.9848 59.2238 67.6282 59.5968 66.355 60.1709C65.7173 60.4601 65.3257 60.6701 65.3089 60.6775C65.2922 60.6849 65.3089 60.6775 65.3089 60.6646C66.6849 59.5955 68.2722 58.8231 69.9687 58.397L69.7823 58.187H69.7711C67.9668 58.2842 66.2365 58.9273 64.8148 60.0291C63.1942 63.1952 62.3221 66.6833 62.264 70.2307C63.5046 71.9528 65.5327 72.9505 67.6715 72.8907C67.6715 72.8907 68.339 72.0875 68.8593 71.4372C67.6118 71.1275 66.5126 70.398 65.7509 69.3741C65.7639 69.3833 65.9485 69.5067 66.2469 69.6688C66.2669 69.6921 66.2917 69.7109 66.3196 69.7241C66.3432 69.7402 66.3682 69.7544 66.3942 69.7665C66.4237 69.7797 66.4518 69.7957 66.4781 69.8144C66.8941 70.0409 67.3259 70.2379 67.7703 70.4038C68.6151 70.7343 69.489 70.9871 70.3808 71.1591C71.1616 71.3045 71.9544 71.3785 72.7489 71.3801C73.4939 71.3801 74.2373 71.3122 74.9698 71.1775C75.8518 71.0245 76.7133 70.7723 77.5374 70.4259C78.2492 70.1555 78.9284 69.8076 79.5624 69.3888ZM75.7622 68.6022C74.951 68.6721 74.1795 68.2429 73.8195 67.5213C73.4594 66.7997 73.5847 65.9338 74.135 65.3407C74.6852 64.7476 75.5476 64.5491 76.3065 64.8407C77.0655 65.1324 77.5654 65.8543 77.5654 66.6588C77.6064 67.6866 76.8004 68.5545 75.7604 68.6022H75.7622ZM69.2956 68.6022C68.2753 68.5144 67.4924 67.6706 67.4924 66.6588C67.4924 65.6471 68.2753 64.8033 69.2956 64.7154C69.7656 64.7168 70.2149 64.9062 70.5412 65.2404C70.9114 65.62 71.1128 66.13 71.1006 66.657C71.1437 67.6865 70.3357 68.5564 69.2937 68.6022H69.2956Z" fill="white"/>
<defs>
<filter id="filter0_di_3397_3" x="0.213203" y="0.213135" width="143.64" height="143.64" filterUnits="userSpaceOnUse" color-interpolation-filters="sRGB">
<feFlood flood-opacity="0" result="BackgroundImageFix"/>
<feColorMatrix in="SourceAlpha" type="matrix" values="0 0 0 0 0 0 0 0 0 0 0 0 0 0 0 0 0 0 127 0" result="hardAlpha"/>
<feOffset dy="4"/>
<feGaussianBlur stdDeviation="12.5"/>
<feComposite in2="hardAlpha" operator="out"/>
<feColorMatrix type="matrix" values="0 0 0 0 0.0392157 0 0 0 0 0.65098 0 0 0 0 0.996078 0 0 0 0.48 0"/>
<feBlend mode="normal" in2="BackgroundImageFix" result="effect1_dropShadow_3397_3"/>
<feBlend mode="normal" in="SourceGraphic" in2="effect1_dropShadow_3397_3" result="shape"/>
<feColorMatrix in="SourceAlpha" type="matrix" values="0 0 0 0 0 0 0 0 0 0 0 0 0 0 0 0 0 0 127 0" result="hardAlpha"/>
<feOffset/>
<feGaussianBlur stdDeviation="12.5"/>
<feComposite in2="hardAlpha" operator="arithmetic" k2="-1" k3="1"/>
<feColorMatrix type="matrix" values="0 0 0 0 0 0 0 0 0 0.197167 0 0 0 0 0.704167 0 0 0 0.3 0"/>
<feBlend mode="normal" in2="shape" result="effect2_innerShadow_3397_3"/>
</filter>
<linearGradient id="paint0_linear_3397_3" x1="14.0935" y1="-106.967" x2="212.399" y2="-61.1535" gradientUnits="userSpaceOnUse">
<stop stop-color="#0AA6FE"/>
<stop offset="1" stop-color="#05FFFF"/>
</linearGradient>
</defs>
</svg>
