<svg width="144" height="145" viewBox="0 0 144 145" fill="none" xmlns="http://www.w3.org/2000/svg">
<g filter="url(#filter0_di_3397_2)">
<rect x="19" y="68.5652" width="75" height="75" rx="15" transform="rotate(-45 19 68.5652)" fill="url(#paint0_linear_3397_2)"/>
</g>
<path fill-rule="evenodd" clip-rule="evenodd" d="M86.853 53.1119C86.4465 53.1977 86.1049 53.3258 84.3745 54.0413C82.5973 54.7763 78.4865 56.4871 78.0658 56.6669C77.9048 56.7358 76.9415 57.1381 75.9254 57.5611C74.1035 58.3193 62.3798 63.2112 59.0046 64.6214C58.0504 65.0201 56.9655 65.4717 56.5937 65.6249C55.506 66.0732 55.0834 66.3191 54.6653 66.747C53.8051 67.6274 53.7763 68.9332 54.595 69.9317C54.8321 70.2208 55.3802 70.6391 55.7686 70.8273C55.925 70.9031 57.5941 71.4791 59.4777 72.1072C61.3613 72.7354 62.9145 73.2633 62.9292 73.2805C62.944 73.2977 63.2658 74.3172 63.6444 75.546C65.5481 81.7249 65.6581 82.0555 65.9968 82.6137C66.208 82.9617 66.5604 83.3118 66.8418 83.4532C67.2021 83.6343 67.7207 83.7185 68.1078 83.659C68.4969 83.5991 68.8546 83.4686 69.0868 83.3019C69.1847 83.2315 69.6482 82.8269 70.1167 82.4027C72.2661 80.4566 73.1701 79.6572 73.2169 79.6613C73.2448 79.6637 74.1089 80.3059 75.1373 81.0882C80.4238 85.1105 79.9649 84.7883 80.6849 84.9844C81.0829 85.0928 82.0724 85.0903 82.4819 84.9797C83.169 84.7943 83.7586 84.4017 84.1789 83.8497C84.652 83.2284 84.6208 83.3402 85.3436 79.676C85.7044 77.8469 86.0692 75.9984 86.1543 75.5683C86.3205 74.7277 87.3751 69.3761 87.6643 67.905C87.7609 67.4135 88.1969 65.2017 88.633 62.9898C89.0692 60.778 89.5457 58.361 89.6921 57.6187C89.8384 56.8765 89.9712 56.1225 89.9873 55.9431C90.128 54.371 89.0842 53.1271 87.574 53.0671C87.314 53.0568 87.0308 53.0744 86.853 53.1119ZM87.1875 55.9857C87.1779 56.0287 87.1301 56.275 87.0814 56.533C87.0328 56.7911 86.7172 58.3997 86.3801 60.1077C85.5487 64.3208 82.9738 77.3717 82.5055 79.7462C82.2971 80.803 82.1126 81.7481 82.0954 81.8464C82.0552 82.0772 81.9627 82.2563 81.8535 82.3142C81.7218 82.3841 81.4825 82.3694 81.3086 82.2806C81.1881 82.2191 77.9292 79.7633 75.0692 77.5789C73.1337 76.1006 73.0623 76.0503 72.9844 76.1116C72.9425 76.1445 71.9059 77.0764 70.6808 78.1823C68.4148 80.228 68.1071 80.5022 68.1071 80.4754C68.1071 80.454 69.0905 74.2347 69.1203 74.0675C69.1399 73.9575 69.3746 73.7179 70.2806 72.8834C70.9052 72.308 71.7421 71.5356 72.1401 71.167C72.5382 70.7983 74.0293 69.4218 75.4536 68.108C76.878 66.7943 78.165 65.606 78.3137 65.4674C78.4624 65.3287 79.0606 64.7762 79.643 64.2397C81.7055 62.3395 81.9233 62.1375 82.362 61.7169C82.8554 61.2439 82.9351 61.1278 82.8999 60.9336C82.8463 60.6378 82.629 60.571 82.2233 60.7257C82.1053 60.7707 81.5424 61.0955 80.9724 61.4473C80.4023 61.7992 78.699 62.8456 77.1871 63.7727C75.6753 64.6998 74.0632 65.6889 73.6047 65.9709C72.7971 66.4674 69.6737 68.3836 66.6599 70.2314C65.726 70.8039 65.1673 71.1209 65.1277 71.1008C65.0934 71.0833 63.2911 70.4798 61.1225 69.7595C58.9539 69.0393 57.1636 68.4362 57.1441 68.4194C57.1246 68.4025 58.8989 67.6422 61.087 66.7296C64.8014 65.1806 67.9215 63.8787 74.889 60.9706C80.5871 58.5922 81.4292 58.2415 84.2617 57.0669C85.8478 56.4092 87.1589 55.8793 87.1753 55.8893C87.1916 55.8993 87.1971 55.9427 87.1875 55.9857Z" fill="white"/>
<defs>
<filter id="filter0_di_3397_2" x="0.213203" y="0.745361" width="143.64" height="143.64" filterUnits="userSpaceOnUse" color-interpolation-filters="sRGB">
<feFlood flood-opacity="0" result="BackgroundImageFix"/>
<feColorMatrix in="SourceAlpha" type="matrix" values="0 0 0 0 0 0 0 0 0 0 0 0 0 0 0 0 0 0 127 0" result="hardAlpha"/>
<feOffset dy="4"/>
<feGaussianBlur stdDeviation="12.5"/>
<feComposite in2="hardAlpha" operator="out"/>
<feColorMatrix type="matrix" values="0 0 0 0 0.0392157 0 0 0 0 0.65098 0 0 0 0 0.996078 0 0 0 0.48 0"/>
<feBlend mode="normal" in2="BackgroundImageFix" result="effect1_dropShadow_3397_2"/>
<feBlend mode="normal" in="SourceGraphic" in2="effect1_dropShadow_3397_2" result="shape"/>
<feColorMatrix in="SourceAlpha" type="matrix" values="0 0 0 0 0 0 0 0 0 0 0 0 0 0 0 0 0 0 127 0" result="hardAlpha"/>
<feOffset/>
<feGaussianBlur stdDeviation="12.5"/>
<feComposite in2="hardAlpha" operator="arithmetic" k2="-1" k3="1"/>
<feColorMatrix type="matrix" values="0 0 0 0 0 0 0 0 0 0.197167 0 0 0 0 0.704167 0 0 0 0.3 0"/>
<feBlend mode="normal" in2="shape" result="effect2_innerShadow_3397_2"/>
</filter>
<linearGradient id="paint0_linear_3397_2" x1="14.0935" y1="-106.435" x2="212.399" y2="-60.6213" gradientUnits="userSpaceOnUse">
<stop stop-color="#0AA6FE"/>
<stop offset="1" stop-color="#05FFFF"/>
</linearGradient>
</defs>
</svg>
